HIERARCHY
ROOT pelvis
{
	OFFSET 0.000000 0.000000 0.000000
	CHANNELS 6 Xposition Yposition Zposition Zrotation Xrotation Yrotation
	JOINT lfemur
	{
		OFFSET 11.446000 0.000000 0.000000
		CHANNELS 3 Zrotation Xrotation Yrotation
		JOINT ltibia
		{
			OFFSET 0.000000 -42.030400 0.000000
			CHANNELS 3 Zrotation Xrotation Yrotation
			JOINT lfoot
			{
				OFFSET 0.000000 -39.930200 0.000000
				CHANNELS 3 Zrotation Xrotation Yrotation
				JOINT ltoes
				{
					OFFSET 0.000000 0.000000 11.775800
					CHANNELS 3 Zrotation Xrotation Yrotation
					End Site
					{
					    OFFSET 0.000000 0.000000 5.000000
					}
				}
			}
		}
	}
	JOINT rfemur
	{
		OFFSET -11.446000 0.000000 0.000000
		CHANNELS 3 Zrotation Xrotation Yrotation
		JOINT rtibia
		{
			OFFSET 0.000000 -42.030400 0.000000
			CHANNELS 3 Zrotation Xrotation Yrotation
			JOINT rfoot
			{
				OFFSET 0.000000 -39.930200 0.000000
				CHANNELS 3 Zrotation Xrotation Yrotation
				JOINT rtoes
				{
					OFFSET 0.000000 0.000000 11.775800
					CHANNELS 3 Zrotation Xrotation Yrotation
					End Site
					{
					    OFFSET 0.000000 0.000000 5.000000
					}
				}
			}
		}
	}
	JOINT thorax
	{
		OFFSET 0.000000 11.255600 -5.000000
		CHANNELS 3 Zrotation Xrotation Yrotation
		JOINT head
		{
			OFFSET 0.000000 43.799300 0.000000
			CHANNELS 3 Zrotation Xrotation Yrotation
			End Site
			{
			    OFFSET 0.000000 5.000000 0.000000
			}
		}
		JOINT lclavicle
		{
			OFFSET 0.000000 39.863000 0.000000
			CHANNELS 3 Zrotation Xrotation Yrotation
			JOINT lhumerus
			{
				OFFSET 17.380600 4.958300 0.000000
				CHANNELS 3 Zrotation Xrotation Yrotation
				JOINT lradius
				{
					OFFSET 0.000000 -27.561300 0.000000
					CHANNELS 3 Zrotation Xrotation Yrotation
					JOINT lhand
					{
						OFFSET 0.000000 -26.933000 0.000000
						CHANNELS 3 Zrotation Xrotation Yrotation
						End Site
						{
						    OFFSET 0.000000 -5.000000 0.000000
						}
					}
				}
			}
		}
		JOINT rclavicle
		{
			OFFSET 0.000000 39.863000 0.000000
			CHANNELS 3 Zrotation Xrotation Yrotation
			JOINT rhumerus
			{
				OFFSET -17.380600 4.958300 0.000000
				CHANNELS 3 Zrotation Xrotation Yrotation
				JOINT rradius
				{
					OFFSET 0.000000 -27.561300 0.000000
					CHANNELS 3 Zrotation Xrotation Yrotation
					JOINT rhand
					{
						OFFSET 0.000000 -26.933000 0.000000
						CHANNELS 3 Zrotation Xrotation Yrotation
						End Site
						{
						    OFFSET 0.000000 -5.000000 0.000000
						}
					}
				}
			}
		}
	}
}
MOTION
Frames:	16
Frame Time:	0.0333333
45.807800 53.278900 -10.753000 2.932245 26.269565 -3.268145 175.130658 -81.904879 -175.691478 -180.000037 74.398351 -180.000037 -0.000001 -18.351963 24.399469 0.000000 -1.064822 0.000000 -146.821439 -82.418224 -140.293103 -180.000037 74.759867 180.000037 0.000000 -18.290039 -11.446028 0.000000 -29.549023 -0.000000 -6.071626 44.700817 -10.820005 30.297681 -0.401457 -16.845876 -3.200287 -0.000000 3.542884 39.821835 2.005555 -24.288551 -180.000037 -49.240149 157.823791 26.384276 -13.274207 0.000000 12.163328 -0.000000 9.896538 -17.165331 -20.434343 47.690784 180.000029 -73.492872 -140.044672 -0.445577 -3.251106 -0.000000 
45.871900 53.467000 -10.672200 2.749993 26.437837 -3.279181 177.400316 -81.974398 -173.839304 -180.000037 74.582555 180.000037 0.000000 -18.308459 24.627201 -0.000000 -1.058208 -0.000000 -144.555974 -82.441450 -138.298282 180.000037 75.144994 180.000037 0.000000 -18.314767 -11.035782 -0.000000 -29.550331 -0.000000 -5.906241 44.816621 -11.239687 30.324051 -0.192039 -17.069923 -3.133096 -0.000000 3.597128 39.082253 1.748124 -24.117311 180.000035 -49.489514 156.914040 26.483737 -12.775108 -0.000000 12.260552 0.000000 10.107515 -17.069896 -20.737646 47.262733 180.000029 -73.687205 -140.167003 -0.445600 -3.251098 0.000000 
45.984500 53.806200 -10.559500 2.911811 26.182159 -3.515516 179.071964 -82.732352 -172.198297 -180.000037 75.098958 180.000037 -0.000001 -18.396323 25.038403 0.000000 -1.047200 0.000000 -140.052156 -82.832581 -133.759520 -180.000037 75.741597 -180.000037 -0.000000 -18.176035 -10.568078 -0.000000 -29.553548 -0.000000 -5.985682 45.040645 -11.196153 30.196636 0.007661 -17.437884 -3.211517 -0.000000 3.143580 38.902702 1.547709 -24.152409 -180.000037 -49.964234 155.572747 25.596445 -12.871850 0.000000 12.191601 0.000000 10.185218 -16.854466 -20.564327 46.555664 -180.000026 -74.332042 -138.991346 -0.445539 -3.251118 0.000000 
46.063200 54.245400 -10.376100 2.908417 26.252976 -3.891972 178.012745 -83.258291 -173.364530 180.000037 75.593949 180.000037 0.000001 -18.400953 25.333546 -0.000000 -1.041184 -0.000000 -137.792684 -83.348763 -131.517684 180.000037 76.521168 -180.000037 0.000000 -17.938845 -10.233590 0.000000 -29.556543 -0.000000 -5.911424 44.950736 -11.195965 30.029922 0.091234 -17.591809 -2.753005 0.000000 3.161486 38.558871 0.840643 -24.300312 -180.000032 -51.287726 155.212180 25.743968 -13.429140 0.000000 11.996616 -0.000000 10.562261 -16.498897 -20.372893 45.813683 180.000035 -75.292228 -140.652808 -0.445563 -3.251110 -0.000000 
46.221300 54.900900 -10.187900 2.832323 26.226202 -4.251853 178.244529 -84.187817 -173.333039 180.000037 76.478609 180.000037 0.000001 -18.580293 25.616447 -0.000000 -1.031144 -0.000000 -132.249173 -84.122273 -125.998867 -180.000037 77.779303 180.000037 -0.000000 -17.772453 -9.962748 -0.000000 -29.558056 -0.000000 -5.579617 44.669516 -11.282423 29.888291 0.471462 -17.737531 -2.549508 -0.000000 3.188456 38.336656 -0.114023 -24.146634 180.000033 -53.376142 155.580665 25.809985 -13.756972 0.000000 12.206319 -0.000000 11.230109 -16.582954 -19.815671 43.878833 180.000028 -76.121722 -139.758513 -0.445555 -3.251113 -0.000000 
46.381400 55.748700 -9.941100 2.638544 26.161529 -4.716992 178.386305 -85.342658 -173.632621 -180.000037 77.570729 -180.000037 -0.000000 -18.533383 26.100263 -0.000000 -1.025241 -0.000000 -123.323195 -85.181928 -117.207784 -180.000037 79.382212 -180.000037 -0.000000 -17.415197 -9.728868 0.000000 -29.560238 -0.000000 -5.238679 44.442112 -11.304433 29.958711 0.739838 -17.762814 -2.213957 -0.000000 3.047275 38.236892 -1.137038 -24.029123 180.000032 -55.568556 154.017101 25.537197 -13.995470 -0.000000 12.934704 -0.000000 11.680105 -16.639755 -19.335591 41.513624 -180.000016 -76.720217 -139.823655 -0.445555 -3.251113 0.000000 
46.523800 56.874000 -9.629500 2.234613 25.835930 -5.608519 167.999695 -87.031418 175.364006 -180.000037 78.956609 -180.000037 -0.000000 -18.336996 26.529521 -0.000000 -1.020522 0.000000 -101.549792 -86.740784 -95.752176 180.000037 81.619652 -180.000037 -0.000000 -16.741092 -9.631646 0.000000 -29.564087 0.000000 -5.069991 44.511190 -11.198719 30.083866 1.087626 -17.493374 -1.756534 -0.000000 2.898377 38.304588 -1.972930 -24.286705 -180.000036 -57.516464 153.059016 25.319773 -13.557191 0.000000 13.709244 0.000000 12.791478 -16.902737 -17.917884 38.978810 180.000023 -76.369052 -138.569454 -0.445451 -3.251148 0.000000 
46.924900 58.120300 -9.317000 2.257290 25.900211 -6.437068 159.870161 -88.559032 166.956129 -180.000037 80.777920 180.000037 0.000000 -18.066741 27.110811 -0.000000 -1.023075 -0.000000 -73.987756 -86.791715 -68.223619 -180.000037 83.968869 -180.000037 0.000000 -15.938915 -9.116585 0.000000 -29.566273 -0.000000 -4.630122 44.349756 -11.633117 30.086867 1.243645 -17.147734 -1.225430 -0.000000 3.002239 38.535258 -3.355667 -25.612177 180.000032 -58.851972 154.776873 25.848734 -13.599327 0.000000 13.944976 0.000000 13.314267 -17.326183 -16.026337 37.257132 -180.000037 -75.241743 -138.958701 -0.445506 -3.251129 0.000000 
47.406800 59.458200 -8.999300 2.368150 25.850680 -7.869240 57.929751 -89.111290 64.689833 -180.000037 82.715434 -180.000037 -0.000001 -17.868017 27.558604 -0.000000 -1.028844 -0.000000 -42.708176 -86.399625 -36.778182 -180.000037 86.725766 -180.000037 0.000000 -15.031531 -8.427330 0.000000 -29.569924 0.000000 -4.484578 44.192548 -11.615668 29.715112 1.632848 -16.814926 -1.026862 -0.000000 2.599672 38.834490 -3.720726 -26.194175 -180.000027 -58.933024 154.526818 25.401974 -13.134877 0.000000 14.219501 -0.000000 13.388767 -18.029164 -14.217007 36.519301 -180.000035 -74.025985 -138.980688 -0.445575 -3.251106 0.000000 
48.036600 60.688900 -8.633000 3.037564 25.801606 -9.363679 18.531176 -87.663463 25.452064 -180.000037 84.559346 -180.000037 -0.000001 -17.375067 27.661018 -0.000000 -1.051604 0.000000 -27.932431 -85.384363 -21.266887 -180.000037 89.159712 -180.000037 0.000000 -14.177392 -7.520367 0.000000 -29.572734 0.000000 -4.472836 44.187550 -11.588722 29.427526 1.744566 -16.547893 -0.555893 0.000000 2.323755 38.642984 -4.431453 -26.664135 180.000031 -59.041247 153.439781 24.090095 -13.635326 0.000000 14.126495 -0.000000 12.593031 -19.183138 -13.155369 36.643347 -180.000036 -72.463870 -139.885003 -0.445652 -3.251080 0.000000 
48.681300 61.677200 -8.264300 3.723343 25.609760 -10.831368 11.829077 -86.151857 18.482667 -180.000037 85.744589 180.000037 -0.000000 -16.642943 26.686029 -0.000000 -1.074734 -0.000000 -20.409810 -84.285044 -13.082292 0.000000 88.807723 0.000000 0.000000 -13.459084 -6.786986 0.000000 -29.575415 -0.000000 -4.375459 43.944185 -12.049396 28.667131 2.135338 -16.220832 -0.870243 -0.000000 2.527590 39.355181 -5.005621 -27.325084 180.000033 -59.429277 153.748832 24.248655 -13.244853 -0.000000 13.811642 0.000000 12.350498 -19.930385 -11.748255 36.921223 -180.000037 -71.011618 -140.328058 -0.445743 -3.251049 0.000000 
49.124300 62.333100 -7.840200 4.429903 25.151087 -12.509659 12.428068 -84.339896 18.056736 180.000037 86.049782 -180.000037 -0.000000 -16.711728 24.473437 0.000000 -1.134160 -0.000000 -11.509386 -83.385971 -3.388218 -0.000000 87.442853 -0.000000 0.000000 -13.065594 -6.546021 0.000000 -29.575955 0.000000 -4.839505 43.806073 -11.922614 28.135284 2.394455 -15.679000 -1.036729 0.000000 2.258427 40.260320 -4.587526 -27.548004 -180.000023 -59.074640 153.579334 23.549813 -13.127404 -0.000001 13.619824 0.000000 11.760887 -20.463938 -11.007658 37.478834 -180.000032 -69.770586 -140.573673 -0.445751 -3.251046 0.000000 
49.608700 62.630700 -7.400800 5.213437 24.536357 -13.774739 9.389534 -82.639473 14.266029 -180.000037 86.141628 -180.000037 0.000001 -17.384644 22.240072 -0.000000 -1.190904 0.000000 -8.794438 -82.661386 0.265050 -0.000000 86.901963 0.000000 -0.000000 -12.910631 -6.234000 -0.000000 -29.575808 0.000000 -5.056261 43.873530 -12.334536 27.488793 2.343024 -15.268626 -1.206448 0.000000 1.891135 41.178506 -3.998285 -27.519939 180.000026 -58.699022 154.661355 23.003322 -13.504152 0.000000 13.271393 0.000000 10.761334 -21.419186 -10.948893 41.110333 180.000031 -67.584695 -147.808662 133.156159 -48.602606 -0.000011 
49.823600 62.539800 -6.982800 5.133232 23.728154 -14.684449 11.744923 -81.040635 16.592017 -180.000037 85.888713 -180.000037 0.000000 -19.098311 21.716465 -0.000000 -1.199111 -0.000000 -3.701173 -81.843475 5.568074 -0.000000 86.973379 0.000000 0.000000 -13.066096 -6.181246 -0.000000 -29.576563 -0.000000 -4.869399 44.247175 -12.999459 26.904286 2.347250 -14.636310 -0.942448 -0.000000 1.842072 41.801807 -3.012425 -27.325467 -180.000033 -58.426275 154.723669 23.019578 -13.190230 0.000000 13.184396 -0.000000 10.717068 -21.282905 -10.968341 41.642892 180.000034 -67.369537 -146.977484 132.527826 -48.384692 0.000005 
50.053600 62.153600 -6.580500 5.185813 22.979358 -14.976763 13.105301 -80.350651 19.044020 -180.000037 85.140882 -180.000037 -0.000000 -20.154232 22.003003 0.000000 -1.179316 0.000000 -4.776651 -81.439976 4.735100 -0.000000 87.781534 -0.000000 0.000000 -13.568960 -5.918930 -0.000000 -29.577232 -0.000000 -4.329301 44.440407 -13.800685 26.597500 2.331754 -14.350473 -0.526128 -0.000000 1.886560 42.227494 -3.124634 -27.677756 -180.000030 -58.557116 154.755650 23.819836 -13.169040 0.000000 13.928867 -0.000000 10.415707 -21.293654 -10.513274 41.422083 -180.000031 -66.877156 -145.835923 133.550017 -48.730998 0.000006 
50.180000 61.567000 -6.181400 4.988606 21.974399 -14.862402 13.292540 -79.540274 19.841107 -180.000037 84.001634 -180.000037 -0.000000 -21.119347 21.720779 -0.000000 -1.162076 -0.000000 -6.849344 -80.901572 2.687141 -0.000000 89.015593 0.000000 0.000000 -14.211277 -5.830399 -0.000000 -29.577980 0.000000 -3.428463 44.926335 -14.952140 26.252709 2.547961 -14.103973 -0.233308 -0.000000 2.026307 42.555482 -3.342100 -27.634300 180.000024 -58.855407 154.989749 23.475510 -13.068374 0.000001 14.690557 -0.000000 11.143543 -21.473175 -9.247594 40.900551 180.000030 -66.524764 -146.071892 132.095451 -48.237696 0.000002 
